<?xml version="1.0" encoding="UTF-8" standalone="no"?>
<!DOCTYPE svg PUBLIC "-//W3C//DTD SVG 1.1//EN" "http://www.w3.org/Graphics/SVG/1.1/DTD/svg11.dtd">
<!-- 由 Microsoft Visio, SVG Export 生成 投影圆绘制.svg 倾向不为0 -->
<svg xmlns="http://www.w3.org/2000/svg" xmlns:xlink="http://www.w3.org/1999/xlink" xmlns:ev="http://www.w3.org/2001/xml-events"
		xmlns:v="http://schemas.microsoft.com/visio/2003/SVGExtensions/" width="8.26772in" height="11.6929in"
		viewBox="0 0 595.276 841.89" xml:space="preserve" color-interpolation-filters="sRGB" class="st29">
	<v:documentProperties v:langID="2052" v:metric="true" v:viewMarkup="false">
		<v:userDefs>
			<v:ud v:nameU="msvNoAutoConnect" v:val="VT0(1):26"/>
		</v:userDefs>
	</v:documentProperties>

	<style type="text/css">
	<![CDATA[
		.st1 {stroke:#00b050;stroke-dasharray:3.5,2.5;stroke-linecap:round;stroke-linejoin:round;stroke-width:0.5}
		.st2 {stroke:#bfbfbf;stroke-linecap:round;stroke-linejoin:round;stroke-width:0.5}
		.st3 {marker-end:url(#mrkr13-12);stroke:#000000;stroke-linecap:round;stroke-linejoin:round;stroke-width:0.25}
		.st4 {fill:#000000;fill-opacity:1;stroke:#000000;stroke-opacity:1;stroke-width:0.14792899408284}
		.st5 {stroke:#0000ff;stroke-dasharray:5.25,3.75;stroke-linecap:round;stroke-linejoin:round;stroke-width:0.75}
		.st6 {stroke:#000000;stroke-linecap:round;stroke-linejoin:round;stroke-width:0.25}
		.st7 {fill:#000000;stroke:#000000;stroke-linecap:round;stroke-linejoin:round;stroke-width:0.25}
		.st8 {marker-start:url(#mrkr13-52);stroke:#000000;stroke-linecap:round;stroke-linejoin:round;stroke-width:0.5}
		.st9 {fill:#000000;fill-opacity:1;stroke:#000000;stroke-opacity:1;stroke-width:0.25773195876289}
		.st10 {stroke:#000000;stroke-linecap:round;stroke-linejoin:round;stroke-width:0.5}
		.st11 {stroke:#7030a0;stroke-linecap:round;stroke-linejoin:round;stroke-width:0.75}
		.st12 {stroke:#7030a0;stroke-dasharray:5.25,3.75;stroke-linecap:round;stroke-linejoin:round;stroke-width:0.75}
		.st13 {stroke:#0000ff;stroke-linecap:round;stroke-linejoin:round;stroke-width:0.75}
		.st14 {stroke:#000000;stroke-dasharray:3.5,2.5;stroke-linecap:round;stroke-linejoin:round;stroke-width:0.5}
		.st15 {fill:#000000;stroke:none;stroke-linecap:round;stroke-linejoin:round;stroke-width:0.25}
		.st16 {fill:none;stroke:none;stroke-linecap:round;stroke-linejoin:round;stroke-width:0.25}
		.st17 {fill:#000000;font-family:Times New Roman;font-size:1.00001em;font-style:italic}
		.st18 {fill:#000000;font-family:Times New Roman;font-size:1.00001em}
		.st19 {font-size:1em;font-style:italic}
		.st20 {fill:#ffffff;stroke:none;stroke-linecap:round;stroke-linejoin:round;stroke-width:0.75}
		.st21 {font-size:1em;font-style:normal}
		.st22 {baseline-shift:-32.4941%;font-size:0.649882em;font-style:normal}
		.st23 {font-size:1em}
		.st24 {fill:none;stroke:none;stroke-linecap:round;stroke-linejoin:round;stroke-width:0.75}
		.st25 {baseline-shift:-32.4941%;font-size:0.649882em}
		.st26 {fill:#000000;font-family:宋体;font-size:1.00001em}
		.st27 {font-family:Times New Roman;font-size:1em}
		.st28 {stroke:#000000;stroke-linecap:round;stroke-linejoin:round;stroke-width:0.75}
		.st29 {fill:none;fill-rule:evenodd;font-size:12px;overflow:visible;stroke-linecap:square;stroke-miterlimit:3}
	]]>
	</style>

	<defs id="Markers">
		<g id="lend13">
			<path d="M 3 1 L 0 0 L 3 -1 L 3 1 " style="stroke:none"/>
		</g>
		<marker id="mrkr13-12" class="st4" v:arrowType="13" v:arrowSize="0" v:setback="20.28" refX="-20.28" orient="auto"
				markerUnits="strokeWidth" overflow="visible">
			<use xlink:href="#lend13" transform="scale(-6.76,-6.76) "/>
		</marker>
		<marker id="mrkr13-52" class="st9" v:arrowType="13" v:arrowSize="0" v:setback="10.92" refX="10.92" orient="auto"
				markerUnits="strokeWidth" overflow="visible">
			<use xlink:href="#lend13" transform="scale(3.88) "/>
		</marker>
	</defs>
	<g v:mID="4" v:index="2" v:groupContext="foregroundPage">
		<title>倾向不为0</title>
		<v:pageProperties v:drawingScale="0.0393701" v:pageScale="0.0393701" v:drawingUnits="24" v:shadowOffsetX="8.50394"
				v:shadowOffsetY="-8.50394"/>
		<g id="shape66-1" v:mID="66" v:groupContext="shape" transform="translate(294.618,-484.061)">
			<title>工作表.66</title>
			<path d="M0 719.72 L70.43 841.89" class="st1"/>
		</g>
		<g id="shape67-4" v:mID="67" v:groupContext="shape" transform="translate(294.618,-606.229)">
			<title>工作表.67</title>
			<path d="M0 841.89 L140.85 841.89" class="st2"/>
		</g>
		<g id="shape29-7" v:mID="29" v:groupContext="shape" transform="translate(19.4567,-552.213)">
			<title>工作表.29</title>
			<path d="M0 841.89 L444.9 841.89" class="st3"/>
		</g>
		<g id="shape68-13" v:mID="68" v:groupContext="shape" transform="translate(201.216,-436.171)">
			<title>工作表.68</title>
			<path d="M0 841.89 L0 463.73" class="st3"/>
		</g>
		<g id="shape30-18" v:mID="30" v:groupContext="shape" transform="translate(155.946,-465.145)">
			<title>工作表.30</title>
			<path d="M90.54 833.35 L95.11 834.99 L99.81 836.43 L104.51 837.66 L109.29 838.75 L114.06 839.7 L118.9 840.46 L123.74
						 841.07 L128.58 841.55 L133.42 841.82 L138.33 841.89 L143.17 841.82 L148.08 841.55 L152.92 841.14 L157.76
						 840.59 L162.6 839.84 L167.37 838.95 L172.15 837.86 L176.85 836.56 L181.55 835.2 L186.19 833.63 L190.76 831.92
						 L195.26 830.01 L199.69 827.96 L204.05 825.77 L208.28 823.45 L212.51 820.93 L216.6 818.26 L220.62 815.53
						 L224.57 812.59 L228.39 809.52 L232.07 806.38 L235.69 803.03 L239.16 799.62 L242.5 796.07 L245.71 792.45
						 L248.84 788.62 L251.78 784.8 L254.64 780.77 L257.37 776.74 L259.89 772.58 L262.28 768.27 L264.53 763.97
						 L266.64 759.53 L268.62 755.1 L270.39 750.52 L272.09 745.94 L273.52 741.3 L274.89 736.59 L276.05 731.81 L277
						 727.03 L277.82 722.18 L278.5 717.33 L278.98 712.48 L279.32 707.63 L279.46 702.72 L279.46 697.87 L279.25
						 692.95 L278.91 688.1 L278.37 683.19 L277.68 678.41 L276.8 673.56 L275.77 668.78 L274.62 664.07 L273.25 659.35
						 L271.75 654.71 L270.05 650.07 L268.21 645.56 L266.23 641.12 L264.12 636.68 L261.8 632.38 L259.34 628.15
						 L256.75 623.98 L254.03 619.95 L251.16 615.99 L248.16 612.17 L245.03 608.41 L241.82 604.72 L238.41 601.24
						 L234.94 597.83 L231.26 594.55 L227.57 591.41 L223.69 588.4 L219.8 585.47 L215.71 582.73 L211.62 580.14 L207.39
						 577.68 L203.1 575.36 L198.73 573.17 L194.3 571.19 L189.74 569.35 L185.17 567.64 L180.53 566.14 L175.9 564.71
						 L171.12 563.55 L166.35 562.45 L161.58 561.63 L156.74 560.88 L151.9 560.34 L147.06 559.99 L142.15 559.79
						 L137.31 559.72 L132.4 559.86 L127.56 560.13 L122.65 560.61 L117.81 561.29 L113.04 562.11 L108.26 563.07
						 L103.49 564.23 L98.79 565.53 L94.15 566.96 L89.52 568.6 L85.02 570.37 L80.52 572.29 L76.09 574.4 L71.79
						 576.66 L67.49 579.05 L63.34 581.57 L59.31 584.31 L55.29 587.11 L51.41 590.11 L47.66 593.18 L43.97 596.39
						 L40.43 599.74 L37.02 603.22 L33.68 606.84 L30.47 610.53 L27.41 614.35 L24.48 618.24 L21.75 622.27 L19.09
						 626.37 L16.57 630.54 L14.25 634.84 L12 639.21 L9.95 643.65 L8.04 648.16 L6.34 652.73 L4.7 657.37 L3.34 662.02
						 L2.05 666.73 L0.95 671.51 L0 676.29" class="st5"/>
		</g>
		<g id="shape40-21" v:mID="40" v:groupContext="shape" transform="translate(314.116,-554.466)">
			<title>工作表.40</title>
			<path d="M3.89 835.2 L2.8 836.29 L1.77 837.52 L1.02 838.89 L0.41 840.39 L0 841.89" class="st6"/>
		</g>
		<g id="shape41-24" v:mID="41" v:groupContext="shape" transform="translate(317.73,-560.886)">
			<title>工作表.41</title>
			<path d="M0 841.28 L0.48 841.89 L2.11 840.25 L0 841.28 Z" class="st7"/>
		</g>
		<g id="shape42-26" v:mID="42" v:groupContext="shape" transform="translate(317.73,-560.886)">
			<title>工作表.42</title>
			<path d="M0 841.28 L0.48 841.89 L2.11 840.25 L0 841.28 L0 841.28" class="st6"/>
		</g>
		<g id="shape43-29" v:mID="43" v:groupContext="shape" transform="translate(313.707,-552.213)">
			<title>工作表.43</title>
			<path d="M0.75 839.7 L0 839.64 L0.14 841.89 L0.75 839.7 Z" class="st7"/>
		</g>
		<g id="shape45-31" v:mID="45" v:groupContext="shape" transform="translate(313.707,-552.213)">
			<title>工作表.45</title>
			<path d="M0.75 839.7 L0 839.64 L0.14 841.89 L0.75 839.7 L0.75 839.7" class="st6"/>
		</g>
		<g id="shape46-34" v:mID="46" v:groupContext="shape" transform="translate(302.049,-597.761)">
			<title>工作表.46</title>
			<path d="M0 841.89 L1.02 840.8 L1.91 839.7 L2.66 838.41 L3.2 837.04 L3.61 835.68" class="st6"/>
		</g>
		<g id="shape47-37" v:mID="47" v:groupContext="shape" transform="translate(300.276,-596.464)">
			<title>工作表.47</title>
			<path d="M2.05 840.87 L1.64 840.25 L0 841.89 L2.05 840.87 Z" class="st7"/>
		</g>
		<g id="shape48-39" v:mID="48" v:groupContext="shape" transform="translate(300.276,-596.464)">
			<title>工作表.48</title>
			<path d="M2.05 840.87 L1.64 840.25 L0 841.89 L2.05 840.87 L2.05 840.87" class="st6"/>
		</g>
		<g id="shape49-42" v:mID="49" v:groupContext="shape" transform="translate(305.321,-603.976)">
			<title>工作表.49</title>
			<path d="M0 841.82 L0.75 841.89 L0.61 839.64 L0 841.82 Z" class="st7"/>
		</g>
		<g id="shape51-44" v:mID="51" v:groupContext="shape" transform="translate(305.321,-603.976)">
			<title>工作表.51</title>
			<path d="M0 841.82 L0.75 841.89 L0.61 839.64 L0 841.82 L0 841.82" class="st6"/>
		</g>
		<g id="shape52-47" v:mID="52" v:groupContext="shape" transform="translate(201.216,-606.297)">
			<title>工作表.52</title>
			<path d="M93.4 841.89 L93.4 841.89 L91.15 838.2 L88.77 834.58 L86.24 831.03 L83.52 827.62 L80.72 824.27 L77.79 821.06
						 L74.72 817.99 L71.52 815.05 L68.24 812.25 L64.77 809.52 L61.29 806.99 L57.68 804.6 L53.93 802.35 L50.11
						 800.23 L46.22 798.32 L42.27 796.55 L38.25 794.91 L34.16 793.4 L30 792.11 L25.84 791.01 L21.54 790.06 L17.32
						 789.24 L13.02 788.69 L8.66 788.21 L4.36 787.94 L0 787.87" class="st8"/>
		</g>
		<g id="shape53-53" v:mID="53" v:groupContext="shape" transform="translate(110.745,-461.526)">
			<title>工作表.53</title>
			<path d="M180.94 751.2 L180.87 747.24 L180.6 743.35 L180.19 739.46 L179.58 735.56 L178.83 731.74 L177.87 727.92 L176.78
						 724.09 L175.55 720.4 L174.12 716.72 L172.56 713.1 L170.85 709.61 L169.01 706.13 L166.96 702.79 L164.78 699.51
						 L162.46 696.3 L160.08 693.23 L157.49 690.29 L154.76 687.42 L151.97 684.69 L149.03 682.09 L145.97 679.64
						 L142.83 677.25 L139.63 675.06 L136.29 673.01 L132.88 671.1 L129.33 669.32 L125.79 667.69 L122.1 666.25 L118.42
						 664.95 L114.67 663.79 L110.86 662.84 L107.04 662.02 L103.15 661.4 L99.27 660.93 L95.38 660.65 L91.42 660.52
						 L87.54 660.58 L83.58 660.79 L79.7 661.13 L75.81 661.68 L71.99 662.43 L68.18 663.32 L64.36 664.34 L60.68
						 665.57 L57 666.93 L53.38 668.51 L49.84 670.14 L46.36 671.99 L43.02 674.04 L39.68 676.15 L36.47 678.41 L33.41
						 680.8 L30.41 683.39 L27.54 686.06 L24.82 688.86 L22.16 691.72 L19.63 694.8 L17.25 697.87 L15.07 701.15 L12.95
						 704.42 L10.98 707.84 L9.2 711.32 L7.57 714.94 L6.07 718.56 L4.7 722.25 L3.55 726 L2.59 729.76 L1.7 733.65
						 L1.02 737.48 L0.55 741.37 L0.2 745.33 L0 749.22 L0 753.18 L0.2 757.08 L0.55 761.04 L1.02 764.93 L1.7 768.75
						 L2.59 772.65 L3.55 776.4 L4.7 780.16 L6.07 783.84 L7.57 787.46 L9.2 791.08 L10.98 794.57 L12.95 797.98 L15.07
						 801.26 L17.25 804.54 L19.63 807.61 L22.16 810.68 L24.82 813.55 L27.54 816.35 L30.41 819.01 L33.41 821.61
						 L36.47 824 L39.68 826.25 L43.02 828.37 L46.36 830.42 L49.84 832.26 L53.38 833.9 L57 835.47 L60.68 836.84
						 L64.36 838.07 L68.18 839.09 L71.99 839.98 L75.81 840.73 L79.7 841.28 L83.58 841.62 L87.54 841.82 L91.42
						 841.89 L95.38 841.75 L99.27 841.48 L103.15 841 L107.04 840.39 L110.86 839.57 L114.67 838.61 L118.42 837.45
						 L122.1 836.15 L125.79 834.72 L129.33 833.08 L132.88 831.31 L136.29 829.39 L139.63 827.34 L142.83 825.16
						 L145.97 822.77 L149.03 820.31 L151.97 817.72 L154.76 814.98 L157.49 812.12 L160.08 809.18 L162.46 806.11
						 L164.78 802.9 L166.96 799.62 L169.01 796.27 L170.85 792.79 L172.56 789.31 L174.12 785.69 L175.55 782 L176.78
						 778.31 L177.87 774.49 L178.83 770.66 L179.58 766.84 L180.19 762.95 L180.6 759.06 L180.87 755.16 L180.94
						 751.2 L180.94 751.2" class="st10"/>
		</g>
		<g id="shape57-56" v:mID="57" v:groupContext="shape" transform="translate(110.745,-519.23)">
			<title>工作表.57</title>
			<path d="M0 808.91 L3.82 811.98 L7.7 814.92 L11.73 817.78 L15.89 820.45 L20.11 822.97 L24.41 825.36 L28.77 827.62 L33.2
						 829.67 L37.7 831.65 L42.34 833.35 L46.97 834.99 L51.68 836.43 L56.38 837.72 L61.22 838.82 L65.99 839.77
						 L70.9 840.52 L75.74 841.14 L80.65 841.55 L85.56 841.82 L90.47 841.89 L95.38 841.82 L100.29 841.55 L105.2
						 841.14 L110.04 840.52 L114.95 839.77 L119.72 838.82 L124.56 837.72 L129.26 836.43 L133.97 834.99 L138.6
						 833.35 L143.24 831.65 L147.74 829.67 L152.17 827.62 L156.53 825.36 L160.9 822.97 L165.06 820.45 L169.21
						 817.78 L173.24 814.92 L177.12 811.98 L180.94 808.91" class="st11"/>
		</g>
		<g id="shape58-59" v:mID="58" v:groupContext="shape" transform="translate(110.677,-552.213)">
			<title>工作表.58</title>
			<path d="M0 841.89 L90.54 733.79" class="st11"/>
		</g>
		<g id="shape59-62" v:mID="59" v:groupContext="shape" transform="translate(201.216,-552.213)">
			<title>工作表.59</title>
			<path d="M-0 733.79 L90.47 841.89" class="st11"/>
		</g>
		<g id="shape60-65" v:mID="60" v:groupContext="shape" transform="translate(201.216,-519.161)">
			<title>工作表.60</title>
			<path d="M0 700.74 L0 841.89" class="st12"/>
		</g>
		<g id="shape62-68" v:mID="62" v:groupContext="shape" transform="translate(153.833,-473.681)">
			<title>工作表.62</title>
			<path d="M2.11 684.83 L1.36 689.67 L0.75 694.59 L0.34 699.51 L0.07 704.42 L0 709.34 L0.07 714.26 L0.34 719.18 L0.75 724.09
						 L1.36 729.01 L2.11 733.86 L3.07 738.71 L4.16 743.49 L5.45 748.2 L6.89 752.91 L8.52 757.62 L10.23 762.2 L12.2
						 766.7 L14.25 771.21 L16.5 775.58 L18.88 779.88 L21.41 784.12 L24.07 788.21 L26.86 792.24 L29.86 796.2 L32.93
						 800.03 L36.13 803.72 L39.54 807.34 L43.02 810.82 L46.56 814.16 L50.31 817.44 L54.13 820.52 L58.02 823.45
						 L62.04 826.32 L66.2 828.98 L70.43 831.51 L74.72 833.9 L79.08 836.15 L83.52 838.2 L88.02 840.18 L92.65 841.89"
					class="st13"/>
		</g>
		<g id="shape63-71" v:mID="63" v:groupContext="shape" transform="translate(155.946,-606.229)">
			<title>工作表.63</title>
			<path d="M0 817.37 L138.67 841.89" class="st13"/>
		</g>
		<g id="shape64-74" v:mID="64" v:groupContext="shape" transform="translate(246.485,-473.613)">
			<title>工作表.64</title>
			<path d="M48.13 709.27 L0 841.89" class="st13"/>
		</g>
		<g id="shape65-77" v:mID="65" v:groupContext="shape" transform="translate(172.65,-535.687)">
			<title>工作表.65</title>
			<path d="M122 771.31 L0 841.89" class="st5"/>
		</g>
		<g id="shape78-80" v:mID="78" v:groupContext="shape" transform="translate(201.216,-660.314)">
			<title>工作表.78</title>
			<path d="M0 841.89 L140.78 841.89" class="st2"/>
		</g>
		<g id="shape76-83" v:mID="76" v:groupContext="shape" transform="translate(201.216,-660.314)">
			<title>工作表.76</title>
			<path d="M-0 841.89 L140.78 841.89" class="st1"/>
		</g>
		<g id="shape77-86" v:mID="77" v:groupContext="shape" transform="translate(201.216,-606.229)">
			<title>工作表.77</title>
			<path d="M93.4 841.89 L-0 841.89" class="st14"/>
		</g>
		<g id="shape32-89" v:mID="32" v:groupContext="shape" transform="translate(219.351,-547.706)">
			<title>工作表.32</title>
			<path d="M-0 841.89 L0.41 839.64" class="st6"/>
		</g>
		<g id="shape33-92" v:mID="33" v:groupContext="shape" transform="translate(214.715,-563.481)">
			<title>工作表.33</title>
			<path d="M1.43 841.89 L-0 840.18" class="st6"/>
		</g>
		<g id="shape34-95" v:mID="34" v:groupContext="shape" transform="translate(217.374,-552.213)">
			<title>工作表.34</title>
			<path d="M2.52 841.89 L2.39 839.91 L2.11 838 L1.64 836.09 L0.89 834.31 L0 832.53" class="st6"/>
		</g>
		<g id="shape35-98" v:mID="35" v:groupContext="shape" transform="translate(219.419,-549.891)">
			<title>工作表.35</title>
			<path d="M0 841.82 L0.75 841.89 L0.55 839.57 L0 841.82 Z" class="st7"/>
		</g>
		<g id="shape36-100" v:mID="36" v:groupContext="shape" transform="translate(219.419,-549.891)">
			<title>工作表.36</title>
			<path d="M0 841.82 L0.75 841.89 L0.55 839.57 L0 841.82 L0 841.82" class="st6"/>
		</g>
		<g id="shape37-103" v:mID="37" v:groupContext="shape" transform="translate(215.874,-561.568)">
			<title>工作表.37</title>
			<path d="M0.61 839.77 L0 840.18 L1.57 841.89 L0.61 839.77 Z" class="st7"/>
		</g>
		<g id="shape39-105" v:mID="39" v:groupContext="shape" transform="translate(215.874,-561.568)">
			<title>工作表.39</title>
			<path d="M0.61 839.77 L0 840.18 L1.57 841.89 L0.61 839.77 L0.61 839.77" class="st6"/>
		</g>
		<g id="shape70-108" v:mID="70" v:groupContext="shape" transform="translate(203.465,-563.481)">
			<title>工作表.70</title>
			<path d="M12.68 841.89 L11.45 840.46 L10.16 839.16 L8.66 838 L7.09 836.97 L5.39 836.09 L3.68 835.4 L1.84 834.92 L0 834.58"
					class="st6"/>
		</g>
		<g id="shape71-111" v:mID="71" v:groupContext="shape" transform="translate(215.874,-561.568)">
			<title>工作表.71</title>
			<path d="M0.61 839.77 L0 840.18 L1.57 841.89 L0.61 839.77 Z" class="st7"/>
		</g>
		<g id="shape72-113" v:mID="72" v:groupContext="shape" transform="translate(215.874,-561.568)">
			<title>工作表.72</title>
			<path d="M0.61 839.77 L0 840.18 L1.57 841.89 L0.61 839.77 L0.61 839.77" class="st6"/>
		</g>
		<g id="shape73-116" v:mID="73" v:groupContext="shape" transform="translate(201.216,-570.446)">
			<title>工作表.73</title>
			<path d="M2.25 841.89 L2.25 841.14 L0 841.34 L2.25 841.89 Z" class="st7"/>
		</g>
		<g id="shape75-118" v:mID="75" v:groupContext="shape" transform="translate(201.216,-570.446)">
			<title>工作表.75</title>
			<path d="M2.25 841.89 L2.25 841.14 L0 841.34 L2.25 841.89 L2.25 841.89" class="st6"/>
		</g>
		<g id="shape84-121" v:mID="84" v:groupContext="shape" transform="translate(278.595,-592.803)">
			<title>工作表.84</title>
			<path d="M26.29 841.89 L26.79 841.49 L27.28 841.07 L27.76 840.63 L28.21 840.18 L28.65 839.7 L29.07 839.21 L29.48 838.71
						 L29.86 838.19 L30.22 837.65 L30.57 837.1 L30.89 836.54 L31.19 835.96 L31.46 835.37 L31.72 834.78 L31.95
						 834.18 L32.15 833.56 L32.34 832.94 L32.5 832.32 L32.63 831.69 L32.74 831.05 L32.83 830.41 L32.89 829.77
						 L32.93 829.12 L32.94 828.48 L32.93 827.83 L32.89 827.19 L32.83 826.54 L32.74 825.9 L32.63 825.27 L32.49
						 824.63 L32.34 824 L32.15 823.38 L31.94 822.77 L31.71 822.16 L31.46 821.57 L31.18 820.98 L30.89 820.41 L30.57
						 819.85 L30.22 819.3 L29.85 818.77 L29.47 818.25 L29.07 817.74 L28.65 817.25 L28.21 816.78 L27.75 816.32
						 L27.28 815.88 L26.79 815.46 L26.28 815.06 L25.76 814.68 L25.22 814.32 L24.67 813.98 L24.11 813.67 L23.54
						 813.37 L22.94 813.1 L22.35 812.84 L21.74 812.62 L21.13 812.41 L20.51 812.23 L19.89 812.06 L19.25 811.93
						 L18.62 811.82 L17.98 811.74 L17.33 811.68 L16.68 811.64 L16.03 811.63 L15.39 811.64 L14.74 811.68 L14.1
						 811.75 L13.46 811.84 L12.83 811.95 L12.2 812.09 L11.57 812.26 L10.95 812.44 L10.34 812.65 L9.73 812.89 L9.14
						 813.14 L8.55 813.42 L7.98 813.72 L7.42 814.04 L6.87 814.38 L6.34 814.75 L5.82 815.13 L5.32 815.54 L4.83
						 815.96 L4.36 816.4 L3.9 816.86 L3.47 817.34 L3.04 817.83 L2.64 818.34 L2.26 818.86 L1.9 819.4 L1.57 819.95
						 L1.25 820.51 L0.96 821.09 L0.68 821.67 L0.43 822.27 L0.21 822.87 L0 823.49" class="st6"/>
		</g>
		<g id="shape85-124" v:mID="85" v:groupContext="shape" transform="translate(303.112,-591.622)">
			<title>工作表.85</title>
			<path d="M1.96 841.01 L1.57 840.42 L0 841.89 L1.96 841.01 Z" class="st15"/>
		</g>
		<g id="shape86-126" v:mID="86" v:groupContext="shape" transform="translate(303.112,-591.622)">
			<title>工作表.86</title>
			<path d="M1.96 841.01 L1.57 840.42 L0 841.89 L1.96 841.01 L1.96 841.01" class="st6"/>
		</g>
		<g id="shape87-129" v:mID="87" v:groupContext="shape" transform="translate(278.095,-609.137)">
			<title>工作表.87</title>
			<path d="M0.84 839.91 L0.15 839.75 L0 841.89 L0.84 839.91 Z" class="st15"/>
		</g>
		<g id="shape89-131" v:mID="89" v:groupContext="shape" transform="translate(278.095,-609.137)">
			<title>工作表.89</title>
			<path d="M0.84 839.91 L0.15 839.75 L0 841.89 L0.84 839.91 L0.84 839.91" class="st6"/>
		</g>
		<g id="shape92-134" v:mID="92" v:groupContext="shape" transform="translate(271.485,-585.227)">
			<title>工作表.92</title>
			<path d="M36.59 839.85 L37.21 839.4 L37.81 838.94 L38.39 838.45 L38.95 837.95 L39.5 837.42 L40.03 836.88 L40.54 836.33
						 L41.04 835.74 L41.51 835.15 L41.97 834.55 L42.4 833.93 L42.82 833.29 L43.21 832.65 L43.58 831.99 L43.94
						 831.32 L44.27 830.63 L44.58 829.94 L44.86 829.24 L45.12 828.53 L45.36 827.81 L45.57 827.08 L45.76 826.35
						 L45.93 825.61 L46.07 824.87 L46.19 824.11 L46.28 823.36 L46.35 822.6 L46.39 821.85 L46.41 821.09 L46.4 820.33
						 L46.37 819.58 L46.32 818.82 L46.24 818.07 L46.13 817.32 L46 816.57 L45.85 815.83 L45.67 815.09 L45.47 814.36
						 L45.24 813.64 L45 812.93 L44.72 812.22 L44.43 811.51 L44.11 810.82 L43.77 810.15 L43.4 809.48 L43.02 808.83
						 L42.61 808.19 L42.19 807.56 L41.74 806.95 L41.28 806.35 L40.79 805.77 L40.29 805.2 L39.77 804.66 L39.23
						 804.12 L38.67 803.61 L38.1 803.11 L37.51 802.64 L36.9 802.18 L36.28 801.74 L35.65 801.33 L35 800.93 L34.34
						 800.56 L33.68 800.2 L32.99 799.86 L32.3 799.56 L31.6 799.27 L30.89 799.01 L30.16 798.77 L29.44 798.55 L28.71
						 798.36 L27.97 798.19 L27.22 798.05 L26.48 797.93 L25.73 797.84 L24.97 797.77 L24.22 797.72 L23.45 797.7
						 L22.69 797.71 L21.94 797.73 L21.18 797.79 L20.43 797.87 L19.68 797.97 L18.93 798.1 L18.19 798.25 L17.45
						 798.42 L16.71 798.62 L15.99 798.85 L15.27 799.09 L14.57 799.36 L13.87 799.66 L13.18 799.97 L12.5 800.32
						 L11.84 800.68 L11.18 801.06 L10.54 801.47 L9.91 801.89 L9.29 802.33 L8.69 802.8 L8.11 803.28 L7.54 803.78
						 L6.99 804.3 L6.46 804.84 L5.95 805.4 L5.45 805.97 L4.97 806.55 L4.51 807.16 L4.08 807.77 L3.66 808.41 L3.25
						 809.05 L2.87 809.71 L2.52 810.38 L2.19 811.06 L1.88 811.75 L1.59 812.46 L1.33 813.17 L1.09 813.89 L0.87
						 814.61 L0.68 815.34 L0.51 816.08 L0.36 816.83 L0.24 817.57 L0.14 818.32 L0.07 819.08 L0.02 819.83 L0 820.59
						 L0 821.35 L0.03 822.11 L0.08 822.86 L0.16 823.61 L0.26 824.38 L0.39 825.12 L0.54 825.86 L0.71 826.6 L0.91
						 827.33 L1.13 828.06 L1.37 828.77 L1.64 829.48 L1.93 830.18 L2.25 830.87 L2.58 831.55 L2.94 832.21 L3.32
						 832.87 L3.73 833.51 L4.15 834.14 L4.6 834.76 L5.06 835.36 L5.54 835.94 L6.04 836.52 L6.56 837.07 L7.1 837.6
						 L7.65 838.12 L8.22 838.62 L8.8 839.1 L9.41 839.56 L10.02 840 L10.66 840.42 L11.3 840.82 L11.96 841.2 L12.63
						 841.55 L13.31 841.89" class="st6"/>
		</g>
		<g id="shape93-137" v:mID="93" v:groupContext="shape" transform="translate(306.287,-586.118)">
			<title>工作表.93</title>
			<path d="M1.98 841.04 L1.6 840.45 L0 841.89 L1.98 841.04 Z" class="st15"/>
		</g>
		<g id="shape94-139" v:mID="94" v:groupContext="shape" transform="translate(306.287,-586.118)">
			<title>工作表.94</title>
			<path d="M1.98 841.04 L1.6 840.45 L0 841.89 L1.98 841.04 L1.98 841.04" class="st6"/>
		</g>
		<g id="shape95-142" v:mID="95" v:groupContext="shape" transform="translate(284.654,-584.406)">
			<title>工作表.95</title>
			<path d="M0.27 840.74 L0 841.4 L2.09 841.89 L0.27 840.74 Z" class="st15"/>
		</g>
		<g id="shape97-144" v:mID="97" v:groupContext="shape" transform="translate(284.654,-584.406)">
			<title>工作表.97</title>
			<path d="M0.27 840.74 L0 841.4 L2.09 841.89 L0.27 840.74 L0.27 840.74" class="st6"/>
		</g>
		<g id="shape98-147" v:mID="98" v:groupContext="shape" transform="translate(206.929,-557.084)">
			<title>工作表.98</title>
			<desc>α</desc>
			<v:textBlock v:margins="rect(4,4,4,4)"/>
			<v:textRect cx="14.483" cy="823.541" width="28.97" height="36.6981"/>
			<rect x="0" y="805.192" width="28.966" height="36.6981" class="st16"/>
			<text x="4" y="827.14" class="st17" v:langID="1033"><v:paragraph v:bulletSize="0.166667"/><v:tabList/>α</text>		</g>
		<g id="shape99-150" v:mID="99" v:groupContext="shape" transform="translate(218.642,-540.968)">
			<title>工作表.99</title>
			<desc>90-α</desc>
			<v:textBlock v:margins="rect(4,4,4,4)"/>
			<v:textRect cx="28.4128" cy="823.541" width="56.83" height="36.6981"/>
			<rect x="0" y="805.192" width="56.8255" height="36.6981" class="st16"/>
			<text x="4" y="827.14" class="st18" v:langID="2052"><v:paragraph v:bulletSize="0.166667"/><v:tabList/>90-<tspan
						class="st19" v:langID="1033">α</tspan></text>		</g>
		<g id="shape102-154" v:mID="102" v:groupContext="shape" transform="translate(-377.497,-253.296) rotate(-54.1911)">
			<title>工作表.102</title>
			<path d="M-0 841.89 A57.1539 18.5655 164.75 0 1 64.16 841.89" class="st6"/>
		</g>
		<g id="shape104-157" v:mID="104" v:groupContext="shape" transform="translate(-234.426,-408.665) rotate(-40.4004)">
			<title>工作表.104</title>
			<path d="M-0 841.89 A32.6544 11.5453 169.31 0 1 41.46 841.89" class="st6"/>
		</g>
		<g id="shape105-160" v:mID="105" v:groupContext="shape" transform="translate(-205.897,-415.401) rotate(-38.2881)">
			<title>工作表.105</title>
			<path d="M0 841.89 A32.3221 6.29139 170.04 0 1 34.46 841.89" class="st6"/>
		</g>
		<g id="shape106-163" v:mID="106" v:groupContext="shape" transform="translate(342.795,-599.374)">
			<title>工作表.106</title>
			<desc>theta2 = 360-β</desc>
			<v:textBlock v:margins="rect(4,4,4,4)"/>
			<v:textRect cx="68.2558" cy="823.541" width="136.52" height="36.6981"/>
			<rect x="0" y="805.192" width="136.512" height="36.6981" class="st16"/>
			<text x="4" y="827.14" class="st18" v:langID="2052"><v:paragraph v:bulletSize="0.166667"/><v:tabList/>theta2 = 360-<tspan
						class="st19" v:langID="1033">β</tspan></text>		</g>
		<g id="shape107-167" v:mID="107" v:groupContext="shape" transform="translate(342.795,-617.835)">
			<title>工作表.107</title>
			<desc>theta1 = 180+β</desc>
			<v:textBlock v:margins="rect(4,4,4,4)"/>
			<v:textRect cx="68.2558" cy="823.541" width="136.52" height="36.6981"/>
			<rect x="0" y="805.192" width="136.512" height="36.6981" class="st16"/>
			<text x="4" y="827.14" class="st18" v:langID="2052"><v:paragraph v:bulletSize="0.166667"/><v:tabList/>theta1 = 180+<tspan
						class="st19" v:langID="1033">β</tspan></text>		</g>
		<g id="shape108-171" v:mID="108" v:groupContext="shape" transform="translate(342.795,-636.296)">
			<title>工作表.108</title>
			<desc>angle = -α</desc>
			<v:textBlock v:margins="rect(4,4,4,4)"/>
			<v:textRect cx="68.2558" cy="823.541" width="136.52" height="36.6981"/>
			<rect x="0" y="805.192" width="136.512" height="36.6981" class="st16"/>
			<text x="4" y="827.14" class="st18" v:langID="2052"><v:paragraph v:bulletSize="0.166667"/><v:tabList/>angle = -<tspan
						class="st19" v:langID="1033">α</tspan></text>		</g>
		<g id="shape111-175" v:mID="111" v:groupContext="shape" transform="translate(301.27,-542.835)">
			<title>工作表.111</title>
			<desc>α</desc>
			<v:textBlock v:margins="rect(4,4,4,4)"/>
			<v:textRect cx="14.483" cy="823.541" width="28.97" height="36.6981"/>
			<rect x="0" y="805.192" width="28.966" height="36.6981" class="st16"/>
			<text x="4" y="827.14" class="st17" v:langID="1033"><v:paragraph v:bulletSize="0.166667"/><v:tabList/>α</text>		</g>
		<g id="shape116-178" v:mID="116" v:groupContext="shape" transform="translate(-55.5593,1003.22) rotate(-151.76)">
			<title>工作表.116</title>
			<path d="M-0 841.89 A60.5476 37.6634 73.18 0 1 54.69 841.89" class="st6"/>
		</g>
		<g id="shape121-181" v:mID="121" v:groupContext="shape" transform="translate(342.795,-563.58)">
			<title>工作表.121</title>
			<rect x="0" y="811.635" width="153.268" height="30.2552" class="st20"/>
		</g>
		<g id="shape117-183" v:mID="117" v:groupContext="shape" transform="translate(387.138,-562.228)">
			<title>工作表.117</title>
			<desc>x=y0sinα=rtanβcosα y=y0cosα=rtanβsinα</desc>
			<v:textBlock v:margins="rect(4,4,4,4)"/>
			<v:textRect cx="87.061" cy="823.541" width="174.13" height="36.6981"/>
			<rect x="0" y="805.192" width="174.122" height="36.6981" class="st16"/>
			<text x="4" y="819.94" class="st17" v:langID="2052"><v:paragraph v:bulletSize="0.166667"/><v:tabList/>x<tspan
						class="st21">=</tspan>y<tspan dy="-0.279em" class="st22" v:baseFontSize="12">0</tspan><tspan dy="0.181em"
						class="st21">sin</tspan><tspan class="st23" v:langID="1033">α</tspan>=r<tspan class="st21">tan</tspan><tspan
						class="st23" v:langID="1032">β</tspan><tspan class="st21">cos</tspan><tspan class="st23" v:langID="1032">α<v:newlineChar/></tspan><tspan
						x="4" dy="1.2em" class="st23">y</tspan><tspan class="st21">=</tspan>y<tspan dy="-0.279em" class="st22"
						v:baseFontSize="12">0</tspan><tspan dy="0.181em" class="st21">cos</tspan><tspan class="st23"
						v:langID="1033">α</tspan>=r<tspan class="st21">tan</tspan><tspan class="st23" v:langID="1032">β</tspan><tspan
						class="st21">sin</tspan><tspan class="st23" v:langID="1032">α</tspan></text>		</g>
		<g id="shape122-203" v:mID="122" v:groupContext="shape" transform="translate(201.216,-796.726)">
			<title>工作表.122</title>
			<desc>y(N)</desc>
			<v:textBlock v:margins="rect(4,4,4,4)" v:tabSpace="42.5197"/>
			<v:textRect cx="16.4695" cy="830.551" width="32.94" height="22.6772"/>
			<rect x="0" y="819.213" width="32.939" height="22.6772" class="st24"/>
			<text x="5.48" y="834.15" class="st17" v:langID="2052"><v:paragraph v:horizAlign="1"/><v:tabList/>y<tspan class="st21">(N)</tspan></text>		</g>
		<g id="shape123-207" v:mID="123" v:groupContext="shape" transform="translate(426.934,-527.697)">
			<title>工作表.123</title>
			<desc>x(E)</desc>
			<v:textBlock v:margins="rect(4,4,4,4)" v:tabSpace="42.5197"/>
			<v:textRect cx="24.9772" cy="829.632" width="49.96" height="24.5156"/>
			<rect x="0" y="817.374" width="49.9543" height="24.5156" class="st24"/>
			<text x="14.65" y="833.23" class="st17" v:langID="2052"><v:paragraph v:horizAlign="1"/><v:tabList/>x<tspan class="st21">(E)</tspan></text>		</g>
		<g id="shape124-211" v:mID="124" v:groupContext="shape" transform="translate(201.216,-427.641)">
			<title>工作表.124</title>
			<desc>S</desc>
			<v:textBlock v:margins="rect(4,4,4,4)" v:tabSpace="42.5197"/>
			<v:textRect cx="7.81737" cy="830.539" width="15.64" height="22.701"/>
			<rect x="0" y="819.189" width="15.6347" height="22.701" class="st24"/>
			<text x="4.48" y="834.14" class="st18" v:langID="2052"><v:paragraph v:horizAlign="1"/><v:tabList/>S</text>		</g>
		<g id="shape125-214" v:mID="125" v:groupContext="shape" transform="translate(79.3445,-529.512)">
			<title>工作表.125</title>
			<desc>W</desc>
			<v:textBlock v:margins="rect(4,4,4,4)" v:tabSpace="42.5197"/>
			<v:textRect cx="14.483" cy="830.539" width="28.97" height="22.701"/>
			<rect x="0" y="819.189" width="28.966" height="22.701" class="st24"/>
			<text x="8.82" y="834.14" class="st18" v:langID="2052"><v:paragraph v:horizAlign="1"/><v:tabList/>W</text>		</g>
		<g id="shape127-217" v:mID="127" v:groupContext="shape" transform="translate(201.216,-660.472)">
			<title>工作表.127</title>
			<desc>(0, y0)</desc>
			<v:textBlock v:margins="rect(4,4,4,4)" v:tabSpace="42.5197"/>
			<v:textRect cx="19.2977" cy="830.539" width="38.6" height="22.701"/>
			<rect x="0" y="819.189" width="38.5954" height="22.701" class="st24"/>
			<text x="4.69" y="834.14" class="st18" v:langID="2052"><v:paragraph v:horizAlign="1"/><v:tabList/>(0, <tspan
						class="st19">y</tspan><tspan dy="-0.279em" class="st25" v:baseFontSize="12">0</tspan><tspan dy="0.181em"
						class="st23">)</tspan></text>		</g>
		<g id="shape128-223" v:mID="128" v:groupContext="shape" transform="translate(334.669,-569.003)">
			<title>工作表.128</title>
			<desc>(x, y),</desc>
			<v:textBlock v:margins="rect(4,4,4,4)" v:tabSpace="42.5197"/>
			<v:textRect cx="32.4827" cy="830.539" width="64.97" height="22.701"/>
			<rect x="0" y="819.189" width="64.9654" height="22.701" class="st24"/>
			<text x="18.66" y="834.14" class="st18" v:langID="2052"><v:paragraph v:horizAlign="1"/><v:tabList/>(<tspan class="st19">x</tspan>, <tspan
						class="st19">y</tspan>),</text>		</g>
		<g id="shape130-228" v:mID="130" v:groupContext="shape" transform="translate(279.3,-660.314)">
			<title>工作表.130</title>
			<desc>原基准线(水平线)</desc>
			<v:textBlock v:margins="rect(4,4,4,4)" v:tabSpace="42.5197"/>
			<v:textRect cx="83.5786" cy="825.509" width="167.16" height="32.7607"/>
			<rect x="0" y="809.129" width="167.157" height="32.7607" class="st24"/>
			<text x="37.58" y="829.46" class="st26" v:langID="2052"><v:paragraph v:horizAlign="1"/><v:tabList/>原基准线<tspan
						class="st27">(</tspan>水平线<tspan class="st27">)</tspan></text>		</g>
		<g id="shape131-233" v:mID="131" v:groupContext="shape" transform="translate(413.858,-588.027)">
			<title>工作表.131</title>
			<desc>水平线</desc>
			<v:textBlock v:margins="rect(4,4,4,4)" v:tabSpace="42.5197"/>
			<v:textRect cx="40.7633" cy="825.509" width="81.53" height="32.7607"/>
			<rect x="0" y="809.129" width="81.5265" height="32.7607" class="st24"/>
			<text x="22.76" y="829.46" class="st26" v:langID="2052"><v:paragraph v:horizAlign="1"/><v:tabList/>水平线</text>		</g>
		<g id="shape133-236" v:mID="133" v:groupContext="shape" transform="translate(332.332,-500.153)">
			<title>工作表.133</title>
			<desc>基准线</desc>
			<v:textBlock v:margins="rect(4,4,4,4)" v:tabSpace="42.5197"/>
			<v:textRect cx="40.7633" cy="825.509" width="81.53" height="32.7607"/>
			<rect x="0" y="809.129" width="81.5265" height="32.7607" class="st24"/>
			<text x="22.76" y="829.46" class="st26" v:langID="2052"><v:paragraph v:horizAlign="1"/><v:tabList/>基准线</text>		</g>
		<g id="shape137-239" v:mID="137" v:groupContext="shape" transform="translate(94.2627,-446.457)">
			<title>工作表.137</title>
			<path d="M213.91 734.89 L213.89 732.76 L213.82 730.62 L213.72 728.51 L213.57 726.38 L213.38 724.27 L213.14 722.15 L212.87
						 720.04 L212.56 717.94 L212.2 715.85 L211.79 713.75 L211.37 711.67 L210.87 709.59 L210.36 707.53 L209.78
						 705.48 L209.18 703.44 L208.54 701.41 L207.86 699.4 L207.12 697.41 L206.37 695.41 L205.55 693.45 L204.72
						 691.49 L203.83 689.57 L202.91 687.64 L201.96 685.75 L200.97 683.86 L199.93 682 L198.86 680.16 L197.75 678.35
						 L196.61 676.54 L195.43 674.77 L194.22 673.03 L192.98 671.31 L191.7 669.61 L190.38 667.94 L189.04 666.28
						 L187.66 664.66 L186.24 663.08 L184.79 661.51 L183.33 659.98 L181.83 658.48 L180.29 656.99 L178.73 655.56
						 L177.14 654.15 L175.52 652.77 L173.87 651.42 L172.2 650.11 L170.51 648.81 L168.79 647.57 L167.03 646.36
						 L165.26 645.18 L163.47 644.04 L161.65 642.93 L159.81 641.86 L157.95 640.84 L156.07 639.83 L154.18 638.88
						 L152.26 637.96 L150.33 637.07 L148.37 636.23 L146.41 635.43 L144.42 634.67 L142.42 633.93 L140.41 633.25
						 L138.38 632.6 L136.34 632.01 L134.29 631.44 L132.23 630.92 L130.17 630.44 L128.07 630 L125.99 629.59 L123.9
						 629.23 L121.8 628.92 L119.69 628.65 L117.57 628.41 L115.46 628.22 L113.33 628.07 L111.2 627.97 L109.08 627.9
						 L106.95 627.88 L104.82 627.9 L102.71 627.97 L100.58 628.07 L98.45 628.22 L96.33 628.41 L94.22 628.65 L92.11
						 628.92 L90.01 629.23 L87.91 629.59 L85.84 630 L83.74 630.44 L81.68 630.92 L79.61 631.44 L77.57 632.01 L75.52
						 632.6 L73.5 633.25 L71.48 633.93 L69.49 634.67 L67.5 635.43 L65.54 636.23 L63.58 637.07 L61.65 637.96 L59.72
						 638.88 L57.83 639.83 L55.96 640.84 L54.1 641.86 L52.26 642.93 L50.43 644.04 L48.64 645.18 L46.87 646.36
						 L45.12 647.57 L43.39 648.81 L41.71 650.11 L40.04 651.42 L38.38 652.77 L36.76 654.15 L35.18 655.56 L33.61
						 656.99 L32.08 658.48 L30.58 659.98 L29.11 661.51 L27.66 663.08 L26.25 664.66 L24.87 666.28 L23.52 667.94
						 L22.21 669.61 L20.93 671.31 L19.69 673.03 L18.48 674.77 L17.3 676.54 L16.16 678.35 L15.05 680.16 L13.98
						 682 L12.94 683.86 L11.95 685.75 L10.99 687.64 L10.07 689.57 L9.19 691.49 L8.35 693.45 L7.53 695.41 L6.78
						 697.41 L6.05 699.4 L5.37 701.41 L4.72 703.44 L4.12 705.48 L3.55 707.53 L3.03 709.59 L2.54 711.67 L2.11 713.75
						 L1.7 715.85 L1.35 717.94 L1.04 720.04 L0.77 722.15 L0.53 724.27 L0.34 726.38 L0.19 728.51 L0.09 730.62 L0.02
						 732.76 L0 734.89 L0.02 737.02 L0.09 739.15 L0.19 741.26 L0.34 743.39 L0.53 745.5 L0.77 747.62 L1.04 749.73
						 L1.35 751.83 L1.7 753.92 L2.11 756.02 L2.54 758.1 L3.03 760.18 L3.55 762.24 L4.12 764.29 L4.72 766.33 L5.37
						 768.36 L6.05 770.37 L6.78 772.37 L7.53 774.36 L8.35 776.32 L9.19 778.28 L10.07 780.21 L10.99 782.13 L11.95
						 784.02 L12.94 785.92 L13.98 787.77 L15.05 789.61 L16.16 791.42 L17.3 793.23 L18.48 795 L19.69 796.74 L20.93
						 798.46 L22.21 800.17 L23.52 801.84 L24.87 803.49 L26.25 805.11 L27.66 806.69 L29.11 808.26 L30.58 809.8
						 L32.08 811.3 L33.61 812.78 L35.18 814.21 L36.76 815.62 L38.38 817.01 L40.04 818.35 L41.71 819.66 L43.39
						 820.96 L45.12 822.2 L46.87 823.41 L48.64 824.59 L50.43 825.73 L52.26 826.84 L54.1 827.91 L55.96 828.94 L57.83
						 829.94 L59.72 830.9 L61.65 831.82 L63.58 832.7 L65.54 833.54 L67.5 834.34 L69.49 835.11 L71.48 835.84 L73.5
						 836.52 L75.52 837.17 L77.57 837.77 L79.61 838.33 L81.68 838.86 L83.74 839.33 L85.84 839.78 L87.91 840.19
						 L90.01 840.54 L92.11 840.85 L94.22 841.12 L96.33 841.36 L98.45 841.55 L100.58 841.7 L102.71 841.8 L104.82
						 841.87 L106.95 841.89 L109.08 841.87 L111.2 841.8 L113.33 841.7 L115.46 841.55 L117.57 841.36 L119.69 841.12
						 L121.8 840.85 L123.9 840.54 L125.99 840.19 L128.07 839.78 L130.17 839.33 L132.23 838.86 L134.29 838.33 L136.34
						 837.77 L138.38 837.17 L140.41 836.52 L142.42 835.84 L144.42 835.11 L146.41 834.34 L148.37 833.54 L150.33
						 832.7 L152.26 831.82 L154.18 830.9 L156.07 829.94 L157.95 828.94 L159.81 827.91 L161.65 826.84 L163.47 825.73
						 L165.26 824.59 L167.03 823.41 L168.79 822.2 L170.51 820.96 L172.2 819.66 L173.87 818.35 L175.52 817.01 L177.14
						 815.62 L178.73 814.21 L180.29 812.78 L181.83 811.3 L183.33 809.8 L184.79 808.26 L186.24 806.69 L187.66 805.11
						 L189.04 803.49 L190.38 801.84 L191.7 800.17 L192.98 798.46 L194.22 796.74 L195.43 795 L196.61 793.23 L197.75
						 791.42 L198.86 789.61 L199.93 787.77 L200.97 785.92 L201.96 784.02 L202.91 782.13 L203.83 780.21 L204.72
						 778.28 L205.55 776.32 L206.37 774.36 L207.12 772.37 L207.86 770.37 L208.54 768.36 L209.18 766.33 L209.78
						 764.29 L210.36 762.24 L210.87 760.18 L211.37 758.1 L211.79 756.02 L212.2 753.92 L212.56 751.83 L212.87 749.73
						 L213.14 747.62 L213.38 745.5 L213.57 743.39 L213.72 741.26 L213.82 739.15 L213.89 737.02 L213.91 734.89
						 L213.91 734.89" class="st28"/>
		</g>
		<g id="shape135-242" v:mID="135" v:groupContext="shape" transform="translate(1043.11,181.576) rotate(90)">
			<title>工作表.135</title>
			<path d="M0 841.89 L108.1 841.89" class="st28"/>
		</g>
	</g>
</svg>
